<?xml version="1.0" encoding="UTF-8"?>
<!DOCTYPE svg PUBLIC "-//W3C//DTD SVG 1.1//EN" "http://www.w3.org/Graphics/SVG/1.1/DTD/svg11.dtd">
<!-- Creator: CorelDRAW 2021.5 -->
<svg xmlns="http://www.w3.org/2000/svg" xml:space="preserve" width="124.099mm" height="46.8607mm" version="1.1" style="shape-rendering:geometricPrecision; text-rendering:geometricPrecision; image-rendering:optimizeQuality; fill-rule:evenodd; clip-rule:evenodd"
viewBox="0 0 11858.81 4477.99"
 xmlns:xlink="http://www.w3.org/1999/xlink"
 xmlns:xodm="http://www.corel.com/coreldraw/odm/2003">
 <defs>
  <style type="text/css">
   <![CDATA[
    .str1 {stroke:#1338BE;stroke-width:19.11;stroke-miterlimit:22.9256}
    .str0 {stroke:#E6E7E8;stroke-width:7.28;stroke-miterlimit:22.9256}
    .fil1 {fill:#1338BE}
    .fil2 {fill:#FEFEFE;fill-rule:nonzero}
    .fil0 {fill:#1338BE;fill-rule:nonzero}
   ]]>
  </style>
 </defs>
 <g id="Layer_x0020_1">
  <metadata id="CorelCorpID_0Corel-Layer"/>
  <g id="_2709037733552">
   <path class="fil0 str0" d="M1149.78 890.87c-294.37,0 -584.66,81.77 -883.13,233.05l200.34 396.59c167.63,-85.86 351.62,-151.28 547.87,-151.28 347.53,0 486.54,196.25 486.54,421.13l0 40.88c-179.9,-69.5 -367.97,-106.3 -539.69,-106.3 -490.63,0 -879.05,286.2 -879.05,703.24 0,404.77 347.53,674.61 797.28,674.61 228.96,0 470.18,-89.95 621.46,-261.67l0 212.61 576.49 0 0 -1263.37c0,-551.96 -376.15,-899.49 -928.11,-899.49zm-134.92 1798.98c-204.43,0 -355.71,-106.31 -355.71,-278.03 0,-171.72 171.72,-298.47 388.42,-298.47 163.54,0 318.91,28.62 453.83,77.69l0 196.25c-40.88,196.25 -257.58,302.56 -486.54,302.56zm2514.65 -1798.98c-273.94,0 -511.08,122.65 -637.82,314.82l0 -265.76 -596.94 0 0 2113.81 596.94 0 0 -1263.37 4.09 12.26c0,-228.96 192.16,-408.86 441.56,-408.86 237.14,0 400.69,179.9 400.69,441.57l0 1218.4 576.49 0 0 -1345.15c0,-478.36 -327.09,-817.71 -785.01,-817.71zm2011.75 1684.5c-249.41,0 -433.39,-155.36 -502.9,-384.32l1525.04 0c0,-797.28 -388.41,-1300.17 -1050.76,-1300.17 -617.38,0 -1087.57,462.01 -1087.57,1099.83 0,650.08 490.63,1112.09 1120.27,1112.09 310.74,0 674.62,-130.83 862.7,-327.08l-380.24 -388.42c-114.48,110.39 -318.91,188.07 -486.54,188.07zm-4.09 -1157.07c241.22,0 396.59,134.93 453.83,343.45l-944.46 0c77.68,-212.61 265.75,-343.45 490.63,-343.45zm1590.63 1635.44l535.6 0 396.59 -1328.79 392.51 1328.79 535.6 0 719.6 -2113.81 -584.67 0 -400.68 1316.52 -417.04 -1316.52 -494.72 0 -417.04 1316.52 -400.68 -1316.52 -584.67 0 719.6 2113.81zm2931.68 -2404.1c175.81,0 318.91,-147.19 318.91,-327.09 0,-167.63 -143.1,-318.91 -318.91,-318.91 -183.99,0 -327.09,151.28 -327.09,318.91 0,179.9 143.1,327.09 327.09,327.09zm-302.56 2404.1l596.94 0 0 -2113.81 -596.94 0 0 2113.81zm1954.52 -523.34c-40.89,40.89 -122.66,69.51 -204.43,69.51 -110.4,0 -200.34,-98.13 -200.34,-237.14l0 -940.38 457.92 0 0 -482.45 -457.92 0 0 -580.58 -572.41 0 0 580.58 -290.29 0 0 482.45 290.29 0 0 1034.42c0,380.23 261.67,645.99 633.73,645.99 171.73,0 363.89,-73.59 486.55,-183.98l-143.1 -388.42z"/>
   <polygon class="fil1 str1" points="9.56,3525.27 11713.28,3525.27 11713.28,4468.43 9.56,4468.43 "/>
   <path class="fil2" d="M432.96 4239.43l92.43 0 0 -140.23 101.87 0c93.7,0 162.87,-60.36 162.87,-145.88 0,-85.53 -69.18,-145.89 -162.87,-145.89l-194.3 0 0 432.01zm92.43 -225.12l0 -121.99 91.81 0c45.9,0 77.35,23.89 77.35,61 0,37.1 -31.45,61 -77.35,61l-91.81 0zm639.51 225.12l104.39 0 -176.07 -432.01 -103.76 0 -176.08 432.01 103.76 0 27.67 -67.91 192.42 0 27.66 67.91zm-188.01 -146.52l64.14 -157.84 64.14 157.84 -128.28 0zm413.76 146.52l93.07 0 0 -348.37 134.57 0 0 -83.63 -362.2 0 0 83.63 134.57 0 0 348.37zm291.14 0l93.07 0 0 -432.01 -93.07 0 0 432.01zm511.87 -348.37l0 -83.63 -332.65 0 0 432.01 332.65 0 0 -83.63 -239.59 0 0 -94.96 216.95 0 0 -83.63 -216.95 0 0 -86.15 239.59 0zm74.2 348.37l92.43 0 0 -279.2 208.14 279.2 93.07 0 0 -432.01 -93.07 0 0 279.2 -208.14 -279.2 -92.43 0 0 432.01zm594.87 0l93.07 0 0 -348.37 134.57 0 0 -83.63 -362.2 0 0 83.63 134.57 0 0 348.37zm830.68 0l-106.27 -150.92c59.11,-20.76 98.1,-71.06 98.1,-135.2 0,-85.53 -69.18,-145.89 -162.87,-145.89l-194.3 0 0 432.01 92.43 0 0 -140.23 68.54 0 98.72 140.23 105.64 0zm-272.91 -347.11l91.81 0c45.9,0 77.35,23.89 77.35,61 0,37.1 -31.45,61 -77.35,61l-91.81 0 0 -121.99zm666.57 -1.26l0 -83.63 -332.65 0 0 432.01 332.65 0 0 -83.63 -239.59 0 0 -94.96 216.95 0 0 -83.63 -216.95 0 0 -86.15 239.59 0zm160.35 264.74l0 -348.37 -93.07 0 0 432.01 308.12 0 0 -83.63 -215.06 0zm591.72 83.63l104.39 0 -176.07 -432.01 -103.76 0 -176.08 432.01 103.76 0 27.67 -67.91 192.42 0 27.66 67.91zm-188.01 -146.52l64.14 -157.84 64.14 157.84 -128.28 0zm413.76 146.52l93.07 0 0 -348.37 134.57 0 0 -83.63 -362.2 0 0 83.63 134.57 0 0 348.37zm291.14 0l93.07 0 0 -432.01 -93.07 0 0 432.01zm391.77 7.55c125.14,0 229.52,-102.51 229.52,-223.87 0,-121.36 -104.39,-223.24 -229.52,-223.24 -123.88,0 -229.52,101.88 -229.52,223.24 0,121.36 105.64,223.87 229.52,223.87zm0 -84.26c-72.32,0 -133.95,-64.14 -133.95,-139.6 0,-74.83 61.63,-138.97 133.95,-138.97 72.94,0 134.57,64.14 134.57,138.97 0,75.46 -61.63,139.6 -134.57,139.6zm301.84 76.72l92.43 0 0 -279.2 208.14 279.2 93.07 0 0 -432.01 -93.07 0 0 279.2 -208.14 -279.2 -92.43 0 0 432.01zm646.43 7.55c105.64,0 167.9,-54.71 167.9,-137.09 0,-79.86 -61.63,-107.52 -154.69,-128.28 -66.65,-15.09 -92.43,-25.15 -92.43,-56.59 0,-25.79 23.89,-46.54 63.51,-46.54 41.5,0 84.9,16.98 123.25,47.79l48.42 -66.65c-44.02,-37.74 -98.73,-59.74 -169.16,-59.74 -94.33,0 -159.72,54.71 -159.72,134.58 0,83.63 64.77,109.42 155.94,130.16 66.03,15.1 91.18,24.53 91.18,55.34 0,27.04 -23.9,48.42 -70.43,48.42 -54.71,0 -101.25,-21.38 -142.12,-56.59l-53.45 63.51c50.3,46.53 116.96,71.69 191.79,71.69zm523.82 -439.55l0 169.78 -196.82 0 0 -169.78 -92.43 0 0 432.01 92.43 0 0 -178.59 196.82 0 0 178.59 92.43 0 0 -432.01 -92.43 0zm179.21 432.01l93.07 0 0 -432.01 -93.07 0 0 432.01zm179.22 0l92.43 0 0 -140.23 101.87 0c93.7,0 162.87,-60.36 162.87,-145.88 0,-85.53 -69.18,-145.89 -162.87,-145.89l-194.3 0 0 432.01zm92.43 -225.12l0 -121.99 91.81 0c45.9,0 77.35,23.89 77.35,61 0,37.1 -31.45,61 -77.35,61l-91.81 0zm501.81 225.12l92.43 0 0 -269.14 133.94 243.99 133.32 -243.99 0 269.14 93.07 0 0 -432.01 -93.07 0 -133.32 243.98 -133.94 -243.98 -92.43 0 0 432.01zm858.34 0l104.39 0 -176.07 -432.01 -103.76 0 -176.08 432.01 103.76 0 27.67 -67.91 192.42 0 27.66 67.91zm-188.01 -146.52l64.14 -157.84 64.14 157.84 -128.28 0zm347.12 146.52l92.43 0 0 -279.2 208.14 279.2 93.07 0 0 -432.01 -93.07 0 0 279.2 -208.14 -279.2 -92.43 0 0 432.01zm799.86 0l104.39 0 -176.07 -432.01 -103.76 0 -176.08 432.01 103.76 0 27.67 -67.91 192.42 0 27.66 67.91zm-188.01 -146.52l64.14 -157.84 64.14 157.84 -128.28 0zm530.73 -23.89l100.61 0 0 66.02c-24.52,17.61 -54.71,27.67 -84.26,27.67 -73.57,0 -135.83,-64.14 -135.83,-139.6 0,-74.83 62.26,-138.97 135.83,-138.97 39.62,0 81.75,18.86 107.53,48.42l67.28 -60.36c-43.39,-45.28 -110.05,-72.32 -174.82,-72.32 -125.14,0 -231.41,101.88 -231.41,223.24 0,121.36 106.27,223.87 231.41,223.87 64.77,0 131.42,-27.04 174.82,-72.32l0 -177.96 -191.17 0 0 72.32zm601.8 -177.96l0 -83.63 -332.65 0 0 432.01 332.65 0 0 -83.63 -239.59 0 0 -94.96 216.95 0 0 -83.63 -216.95 0 0 -86.15 239.59 0zm435.77 348.37l-106.27 -150.92c59.11,-20.76 98.1,-71.06 98.1,-135.2 0,-85.53 -69.18,-145.89 -162.87,-145.89l-194.3 0 0 432.01 92.43 0 0 -140.23 68.54 0 98.72 140.23 105.64 0zm-272.91 -347.11l91.81 0c45.9,0 77.35,23.89 77.35,61 0,37.1 -31.45,61 -77.35,61l-91.81 0 0 -121.99z"/>
  </g>
 </g>
</svg>
